<svg version="1" xmlns="http://www.w3.org/2000/svg" width="4284" height="4284" viewBox="0 0 3213.000000 3213.000000"><path d="M2688.5 33.8c-45.1 29.8-60 40-83.1 56.7-15.4 11-14.7 10.6-18.9 13.8-1.6 1.3-8.8 6.8-16 12.2-15 11.4-47.5 37.2-62 49.3-5.5 4.6-11.1 9.3-12.5 10.4-1.4 1.2-4.1 3.5-6.1 5.2-1.9 1.7-6.2 5.4-9.5 8.2-14.9 12.9-23 20-23.9 21-.5.5-4.6 4.1-8.9 8-4.4 3.8-9.2 8-10.6 9.4-1.4 1.4-4.8 4.5-7.6 6.9-2.7 2.4-10.5 9.6-17.4 16.1-6.9 6.5-14.5 13.7-17 16-22.9 21.6-79.2 79-93 95-1.2 1.4-3.8 4.3-5.8 6.5-3.7 3.9-15.3 17.1-25.7 29-12 13.7-29.8 35.1-42.5 51-7.4 9.4-13.7 17.2-14 17.5-2.2 2.2-33.1 43.7-47.1 63.5-21.4 30-44.9 65.9-65.9 100.5-20.7 34.1-47.1 83.2-60.1 111.8-1.7 3.7-4.7 10.1-6.6 14.2-1.9 4.1-4.1 8.8-4.8 10.5-.7 1.6-2.5 5.6-3.9 8.8-3 6.6-19.1 46.8-22.9 57.2-9.9 26.7-17.6 49.7-24.7 74-2.3 7.7-4.3 14.7-4.5 15.5-.3.8-1.8 6.7-3.5 13s-3.3 12.8-3.5 14.3c-.3 1.6-.7 3.2-.9 3.6-.4.6-7.8 32.9-9.1 39.6-3 15.6-3.7 19.3-3.9 21-.2 1.1-.6 3.3-.9 5-.3 1.6-.9 4.8-1.2 7-.3 2.2-.7 5.1-1 6.5-.4 2.4-.6 3.6-2 14.5-.4 2.7-.8 6.1-1 7.5-.2 1.4-.7 4.7-1 7.5-.3 2.7-.8 6.3-1 8-.2 1.6-.6 6.6-1 11s-.8 9.6-1 11.5c-2 17.5-2.7 94.4-1.2 114 1.9 23.5 2.8 33.1 3.2 36.5.2 1.6.9 7.3 1.5 12.5s1.3 11.1 1.6 13c.7 4.9 5.3 33.1 5.8 35.5.2 1.1.7 4 1.2 6.5.4 2.5.8 4.7.9 5 .2 1.1 1.7 7.9 4.1 19 6.6 30.7 21.3 80.7 28.4 96.5.4 1.1 2.7 7.2 5 13.5s4.8 12.9 5.6 14.7c.8 1.7 1.4 3.4 1.4 3.8 0 1.1 24.4 51.7 33.7 70 6.9 13.6 18.7 33.3 42.2 70.2 1.4 2.3 4.6 7.4 7.1 11.4 7.3 11.8 39 60.3 62.1 95.3 5.5 8.1 9.9 15.2 9.9 15.6 0 .5.3 1 .8 1.2 1.2.5 18.2 27.8 18.2 29.2 0 .5 11.7 21.7 13 23.6.6.8 1.4 2.4 1.9 3.5s3.4 6.4 6.5 11.9c3.1 5.4 5.6 10 5.6 10.1 0 .2 1.9 3.6 4.3 7.7 2.4 4 5.7 9.8 7.4 12.8 1.6 3 6.1 10.9 10 17.5 6.7 11.5 8.9 15.8 14.8 29 1.5 3.3 4.2 9.1 6 13 1.8 3.8 6.9 15.1 11.5 25 4.5 9.9 10 21.8 12.2 26.4 12 25.4 20 44.7 24.8 59.1 1 3 3.4 9.5 5.3 14.5 8.3 21.2 20.8 57.8 27.3 80 6.7 22.9 11.4 39.7 12.9 46.4.2.9 2 8.3 4 16.6 1.9 8.2 3.7 15.9 3.9 17 .2 1.1.9 4 1.5 6.5.5 2.5 1.3 6.1 1.6 8 .3 1.9 1.1 5.5 1.6 8 .6 2.5 1.2 5.4 1.4 6.5.1 1.1.6 3.6.9 5.5 1.2 6 4.4 25.3 5 29 .2 1.9.8 5.7 1.2 8.5.3 2.7.8 5.9 1 7 .4 1.8 2.6 19.8 3.9 31.5 1 8 1.3 11.4 3 33 3.4 41.3 3.4 103.5 0 144.3-2.1 24.7-2.9 33.1-5 49.2-.8 6-1.7 13-2 15.4-.5 4.4-1.2 8.6-2 13.1-.3 1.4-.7 4.7-1 7.5-.4 2.7-.8 5.7-1 6.5-.2.8-.7 3.1-1 5-.7 4-5.3 28.5-5.9 31.5-.2 1.1-1.1 5.6-2 9.9-.9 4.4-1.8 8.2-2 8.5-.2.3-.7 2.2-1 4.1-.3 1.9-.8 4.4-1.1 5.5-.2 1.1-.9 4-1.6 6.5-.6 2.5-1.3 5.6-1.5 7-.3 1.3-2.3 9.2-4.5 17.5-2.2 8.2-4.2 15.8-4.4 16.9-.6 2.7-8.3 28.8-11.2 38.1-11 35.5-34.1 99.5-41.8 116.2-.8 1.7-1.5 3.4-1.5 3.8 0 .3-.9 2.5-1.9 4.9-1.1 2.3-2.9 6.5-3.9 9.2-1.1 2.7-3.4 8-5.2 11.9-1.8 3.8-4 9-5 11.5-2 5-6.6 15.1-14.1 30.8-2.7 5.7-4.9 10.6-4.9 10.8 0 .8-27.8 56.3-35.5 71-11.8 22.4-30.3 56-41.7 75.8-3.7 6.5-6.8 12-6.8 12.3 0 .3-.8 1.7-1.9 3.1-1 1.5-2.9 4.7-4.3 7.2-5 9-6.8 12.1-26.3 44.5-16 26.6-46.5 76.2-54.4 88.5-1.4 2-1.4 2.3-.1 1.5 1.6-1 19.2-14.6 20-15.5.3-.3 3.7-3 7.5-6 3.9-3 8.1-6.5 9.5-7.6 1.4-1.2 8.4-7 15.5-13 14.6-12.1 13.4-11.2 34-29.5 38-33.8 88.6-84.1 114.2-113.5 5.3-6.1 13.1-15 15.3-17.4 1.4-1.5 4.5-5.1 7-8.1 2.5-2.9 7-8.3 10-11.9 19.5-22.9 50.6-63.4 70.1-91.2 16.3-23.2 46-69.6 55.9-87.3 1.2-2.2 5-9 8.5-15 16.8-29.9 32.7-61.9 47.7-96 3.8-8.8 7.6-17.4 8.4-19.1 6.8-15.3 23.6-61 31.7-86.4 7.7-24 19.3-65.7 21.1-75.2.2-1.3 1.1-5.2 2-8.8.9-3.6 1.8-7.4 2-8.5.2-1.1.7-3.1 1-4.5.3-1.4.8-3.6 1-5 .3-1.4 1.6-8.1 2.9-15 1.4-6.9 2.8-14.1 3.1-16 .8-5.1 1.5-9.2 2.1-12 .3-1.4.8-4.5 1.1-7 .3-2.5.8-5.4 1-6.4.2-1.1.8-5.6 1.4-10 .6-4.5 1.3-9.2 1.5-10.6.9-6.4 1.5-10.9 2-16 .4-3 .8-6.6 1-8 .2-1.4.6-5.9 1-10s.8-8.6 1-10c.3-2.2.9-9.9 2-28 1.7-26.2 2.1-66.6 1-96-.7-21.5-2.1-44.7-3-52-.3-1.9-.7-7.2-1.1-11.8-.3-4.6-.7-9.1-.9-10.2-.2-1-.7-5-1-8.7-.4-3.7-.8-7.9-1.1-9.3-.2-1.4-.6-5-.9-8-.4-3-.8-6.2-1-7-.3-.8-.7-4.2-1-7.5-.3-3.3-.8-6.7-1-7.5-.2-.8-.7-3.5-1-6-.3-2.5-.8-5.6-1.1-7-.2-1.4-.6-3.9-.8-5.5-1.6-11.4-7.2-40-12.6-64.5-1.1-4.7-2.1-9.6-2.4-11-1.1-6.3-13-51.4-18.1-68.5-27.8-94.1-72.2-200-121.9-291-11.3-20.7-15-27.2-16.4-29.5-.9-1.4-1.7-2.7-1.7-3-.1-1.2-33.8-57.8-42.7-71.5-3.1-5-6.9-11-8.4-13.5s-11.8-18.2-22.9-35c-11.1-16.8-23.4-35.7-27.5-42-4.1-6.3-10.7-16.7-14.9-23-12.7-19.6-15-23.7-28.7-51-14.1-28-27.2-59.9-37-90-3-9.1-5.6-17.4-5.8-18.5-.2-1.1-1.5-6.3-3-11.6-1.4-5.2-2.8-11.1-3.1-12.9-.3-1.8-.8-3.7-1-4-.3-.4-.7-2.5-1.1-4.6-.3-2.2-1.2-6.8-2.1-10.4-.8-3.5-1.6-7.8-1.8-9.5-.2-1.6-.9-5.9-1.5-9.5-2.3-13.3-2.6-15.9-3.5-23.5-.4-3.2-.8-6.6-1-7.5-.2-.8-.6-4.9-1-9-.3-4.1-.8-8.9-1-10.5-.4-3.8-1.5-19.6-2.1-30-1.1-21.9 0-67.5 2.2-87.5.8-7.4 1.4-13.2 1.9-19 .9-8.6 1.5-13.3 2-16 .4-2.6.9-5.8 2.1-14.5.3-2.8.8-5.9 1-7 .2-1.1.9-5 1.4-8.6 1-7.1 7.5-40.2 9-45.9.5-1.9 1.1-4.6 1.3-6 1.8-10.1 15-58.7 22.3-82 5.3-16.8 16.1-48.6 16.9-50 .3-.6.8-1.8 1-2.7.3-1.8 9.7-27 11.4-30.8.5-1.1 2.8-7 5.2-13 2.3-6.1 5.1-13 6.2-15.5 1-2.5 2.5-5.9 3.2-7.5 22.8-52.6 42.6-94.4 64.2-135.5 9.7-18.4 14.1-26.5 16-30 2.3-4.1 7.3-13.2 11.6-21 11.1-20.4 45.5-78.3 63.5-107 20.8-33.1 56.7-87.7 74.4-113 6.6-9.4 16.8-24.2 20.3-29.2 13.5-19.5 52.9-74.1 68.1-94.3 2.5-3.3 8.4-11.2 13.1-17.5 9.9-13.2 49.6-65 55.7-72.6 2.3-2.8 5.5-6.8 7.1-8.9 1.7-2.1 10.5-13.3 19.8-24.8l16.7-20.9V46.4c0-8.5-.3-15.4-.7-15.3-.5 0-2.6 1.2-4.8 2.7zM1704.7 1388.6c-.1.1-7.6.5-16.7.9-22.6.9-24.5 1-47.5 3-3.3.3-7.8.7-10 1-2.2.2-6.7.7-10 1-3.3.4-7 .8-8.1 1-1.2.2-4.8.7-8 1-3.3.4-6.7.9-7.8 1.1-1 .2-4.4.6-7.5 1-3.1.3-5.8.8-6.1.9-.3.2-2.9.6-5.9 1-3 .4-6.3.9-7.5 1.1-1.2.2-3.7.7-5.6 1-16.7 2.5-59.6 12-83.5 18.5-32.6 8.9-87.2 27.9-109.9 38.3-3.1 1.4-5.9 2.6-6.1 2.6-.4 0-2.4.9-20.5 9.2-28.9 13.2-68.5 34.7-96 52.1-18 11.4-45.7 30.3-55.5 37.9-45.1 34.8-62.4 49.8-93 80.3-15.7 15.7-20 20.2-34 35.5-12.6 13.9-32 37.4-44.6 54-3.5 4.7-6.7 8.9-7.2 9.5-6.8 8.4-31.3 44.6-42.4 62.5-11.2 18.3-12.6 20.7-27.5 47.5-3.7 6.7-30.6 60.4-34 68-6.6 14.5-30.1 78.7-37.1 101-1.5 4.9-7.5 26.9-8.2 30.3-.6 3-8.3 33.4-10.9 43.2-2.8 10.7-5.4 22.9-6.1 29.3-.3 2.3-.7 5.3-1 6.7-.7 3.6-1.2 7.4-2.5 16.5-.6 4.4-1.2 9.1-1.5 10.5-.5 2.6-.9 5.7-2 14.5-.3 2.7-1 7.2-1.5 10-1 5.6-2 13.2-2.5 19.1-.1 2.1-.6 6.8-.9 10.4-1.4 15-1.9 22.8-3.2 50.5-.3 7.7-.8 16-1 18.5-.4 5.8-.4 34.7.1 42.5.2 3.3.6 11.8.9 19 1.2 24.7 3.3 56.6 4.1 61.5.2 1.4.7 5 1 8 .3 3 .8 6.2 1 7 .2.8.7 4 1 7 .4 3 .8 5.7 1 6 .2.3.6 3.6 1 7.5.3 3.8.8 7.2 1 7.5.2.3.6 3 1 6 .3 3 .8 6.6.9 8 .6 4 2.5 16.8 3.1 20 .1.8.6 3.5 1 6 1.3 8.1 2.9 14.9 12.5 52.5 3.9 15.4 7.3 28.7 7.5 29.5 3.7 15.1 23.1 70.7 35.6 102 11.7 29.3 50.6 103.9 69.4 133 32 49.6 61.1 88.2 94.9 125.5 15.2 16.9 52.4 53.6 68.6 67.7 19.8 17.2 50.8 42.2 62 49.8 1.2.8 4.1 2.9 6.4 4.6 9.1 6.9 41.1 27.8 57.6 37.6 42 25.2 81.7 44.7 128.5 63.3 19.9 7.9 56.5 20.7 68.5 24 3 .8 11.1 3.1 18 5 6.9 2 13.2 3.8 14 4 13 3.1 31.6 7.6 33.3 7.9 1.2.2 4.2.9 6.7 1.5 2.5.5 6.1 1.3 8 1.6 1.9.3 6.7 1.2 10.5 2 3.9.8 9.9 1.9 13.5 2.4 3.6.6 7.4 1.3 8.5 1.5 3.3.6 11.8 1.9 20.5 3.1 2.5.3 5.6.8 7 1 7 1 11 1.5 16 2 6.8.7 14.7 1.6 18 2 5.6.8 19.5 1.8 40.5 3.1 16.9 1.1 92.4 1.1 108.5.1 17.4-1.1 23.7-1.6 29.7-2.2 2.8-.3 8.2-.7 12-1 3.7-.3 7.9-.7 9.3-.9 2.2-.4 4.9-.7 17-2.1 6.7-.8 12.6-1.6 21.5-3 5-.8 10.6-1.6 12.5-1.9 3-.3 9-1.4 17.5-3 5.9-1.1 11.1-2.1 12-2.2 6-.8 9.5-1.9 9.2-2.7-.2-.6-1.3-1.2-2.6-1.4-1.3-.2-11.6-2.6-22.9-5.4-11.4-2.8-21.4-5.2-22.2-5.4-3.5-.8-17.9-4.5-23.5-6-3.3-.8-9.6-2.5-14-3.7-4.4-1.1-11.8-3.2-16.5-4.5-4.7-1.4-9.4-2.6-10.6-2.9-12.4-2.4-86.4-26-121.9-38.9-21.2-7.6-73.4-28.8-80.3-32.5-1-.5-6.4-3-12.2-5.7-32.5-14.8-75.1-37.4-107-56.8-24-14.6-64.2-42.2-82-56.2-6.6-5.2-34.7-27.9-35.6-28.7-.6-.6-4.2-3.8-7.9-7.1-14-12.3-18.5-16.5-38.1-36-18.2-18.2-32.4-33.2-41.5-44-1.9-2.2-3.6-4.2-3.9-4.5-1.3-1.2-16.2-19.4-22.6-27.5-37.1-47.2-72.1-104.2-97.1-158-8.9-19.2-11.3-24.7-18.8-43.5-4.2-10.7-8.1-20.4-8.5-21.5-6.4-15.4-24.1-73.1-29.5-96-.1-.6-.5-2.1-.8-3.5-1.2-5-3.8-16.5-4.1-18.5-.2-1.1-1.6-7.8-3-14.8-2.2-10.8-6.9-37.6-8.1-47-.2-1.5-.6-4.4-.9-6.5-.3-2-.8-6-1.1-8.7-.3-2.8-.8-6.6-1-8.5-.2-1.9-.7-5.8-1-8.5-.2-2.8-.7-7-.9-9.5-.3-2.5-.8-8.1-1.1-12.5-.3-4.4-.7-10-1-12.5-2.6-27.7-2.1-86.4 1-122 .3-3 .7-8.4 1-12 .3-3.5.8-7.8 1-9.5.2-1.6.7-5.7 1-9 .3-3.3 1-8.7 1.5-12 .5-3.3 1.1-8.3 1.5-11 .3-2.8.8-5.7 1-6.5.2-.8.6-3.5.9-6 .7-4.9.9-6.4 3.1-18.5.8-4.4 1.7-9.6 2-11.5 1.4-8.1 5.9-28.4 9.2-41.5 1.9-7.7 3.6-14.7 3.8-15.5 2.9-12.4 15.2-52.1 23.3-75 13.7-38.4 43.1-102 60.3-130.3 1.6-2.6 2.9-4.9 2.9-5.1 0-1.1 17.8-29.5 28.3-45.1 17.2-25.7 39.5-55.3 55.8-74 33.3-38.2 55.8-60.7 94.3-94.6 12.9-11.3 47.5-38 68.4-52.7 6.8-4.8 36.1-24.2 36.6-24.2.2 0 3.2-1.8 6.5-4s6.4-4 7-4c.5 0 1.1-.4 1.3-.8.3-.9 42.1-25 48.3-27.9 2.2-1 4.2-2 4.5-2.3.8-.9 43.3-21.7 56.4-27.7 30.9-14.1 58.6-25.3 92.7-37.6 29.6-10.7 79.1-26.9 89.4-29.3 1.7-.4 3.5-1 4-1.5.6-.4 1.5-.8 2-.9 2-.2 6.2-1.3 18-4.7 6.6-1.9 12.7-3.6 13.5-3.8.8-.1 3.5-.9 6-1.6 2.5-.7 5-1.3 5.5-1.4.6-.2 4.6-1.3 9-2.5s8.7-2.3 9.5-2.5c4-.9 10.7-2.6 23.5-6 7.7-2 15.1-3.9 16.4-4.1 2-.4 9-2.1 16.1-3.9.8-.2 4.9-1.1 9-2 4.1-1 8-2.1 8.5-2.7.7-.6.7-.9 0-.7-.9.3-9.8-1.2-16.5-2.6-3.1-.7-23.1-4.2-28.5-5-2.2-.3-4.7-.7-5.5-1-.8-.2-4.2-.7-7.5-1-3.2-.4-6.2-.8-6.5-1-.3-.1-3.6-.6-7.5-1-3.8-.4-7.2-.8-7.5-1-.3-.1-4.3-.6-9-.9-4.6-.4-9.3-.9-10.5-1.1-1.1-.2-5.4-.7-9.5-1-4.1-.3-10-.8-13-1.1-18-1.6-45.2-2.6-73.8-2.8h-25.5z"/></svg>